<svg xmlns="http://www.w3.org/2000/svg" xmlns:xlink="http://www.w3.org/1999/xlink" width="712" zoomAndPan="magnify" viewBox="0 0 534 239.999995" height="320" preserveAspectRatio="xMidYMid meet" version="1.0"><defs><clipPath id="75cd303cf7"><path d="M 0 0 L 533.976562 0 L 533.976562 239.988281 L 0 239.988281 Z M 0 0 " clip-rule="nonzero"/></clipPath><clipPath id="c073d4e49e"><path d="M 43.609375 40.261719 L 379 40.261719 L 379 199.726562 L 43.609375 199.726562 Z M 43.609375 40.261719 " clip-rule="nonzero"/></clipPath><clipPath id="56864b768d"><path d="M 371.03125 92.917969 C 364.933594 95.539062 359.445312 99.40625 354.554688 104.539062 C 345.472656 114.039062 340.496094 125.625 339.585938 139.335938 C 339.554688 139.847656 339.535156 140.355469 339.535156 140.867188 L 339.535156 146.386719 C 339.535156 146.695312 339.535156 147.015625 339.503906 147.324219 C 339.394531 152.09375 338.273438 155.855469 336.226562 158.625 C 333.996094 161.566406 330.976562 163.023438 327.144531 163.023438 C 323.296875 163.023438 320.265625 161.566406 318.09375 158.625 C 315.925781 155.683594 314.84375 151.605469 314.84375 146.386719 L 314.84375 110.269531 C 314.84375 99.839844 306.386719 91.378906 295.957031 91.378906 L 294.6875 91.378906 C 294.546875 91.378906 294.417969 91.398438 294.285156 91.398438 C 294.214844 91.398438 294.136719 91.386719 294.066406 91.386719 C 283.285156 91.386719 274.546875 100.128906 274.546875 110.90625 L 274.546875 146.375 C 274.546875 151.59375 273.449219 155.675781 271.238281 158.617188 C 269.027344 161.554688 265.996094 163.035156 262.15625 163.035156 C 258.316406 163.035156 255.296875 161.566406 253.128906 158.617188 C 250.957031 155.664062 249.867188 151.585938 249.867188 146.375 L 249.867188 110.90625 C 249.867188 107.558594 249.019531 104.40625 247.539062 101.648438 C 244.808594 93.777344 237.347656 88.117188 228.550781 88.117188 C 217.441406 88.117188 208.429688 97.128906 208.429688 108.226562 L 208.429688 144.777344 C 208.429688 150.15625 207.3125 154.367188 205.019531 157.394531 C 202.761719 160.425781 199.640625 161.925781 195.671875 161.925781 C 191.703125 161.925781 188.613281 160.425781 186.382812 157.394531 C 184.292969 154.574219 183.171875 150.695312 183.0625 145.777344 L 183.0625 67.917969 C 183.0625 56.808594 174.050781 47.800781 162.941406 47.800781 C 151.832031 47.800781 142.824219 56.808594 142.824219 67.917969 L 142.824219 87.378906 L 115.15625 87.378906 L 115.15625 83.347656 C 115.15625 79.898438 116.203125 77.160156 118.304688 75.128906 C 120.40625 73.097656 123.214844 72.078125 126.734375 72.078125 L 126.804688 72.078125 C 130.425781 72.058594 133.355469 69.121094 133.355469 65.5 L 133.355469 47.789062 C 133.355469 44.160156 130.5625 41.160156 126.945312 40.820312 C 123.273438 40.472656 119.695312 40.75 116.183594 40.75 C 104.054688 40.75 94.144531 44.589844 86.464844 52.28125 C 78.785156 59.96875 74.9375 69.871094 74.9375 82.007812 L 74.9375 87.390625 L 59.765625 87.390625 C 51.058594 87.378906 43.996094 94.4375 43.996094 103.148438 C 43.996094 111.859375 51.058594 118.917969 59.765625 118.917969 L 74.9375 118.917969 L 74.9375 175.203125 C 74.9375 186.3125 83.9375 195.3125 95.046875 195.3125 C 106.15625 195.3125 115.15625 186.3125 115.15625 175.203125 L 115.15625 118.90625 L 142.792969 118.90625 L 142.792969 144.375 C 142.792969 144.875 142.792969 145.375 142.824219 145.875 C 143.113281 161.464844 147.972656 174.132812 157.472656 183.925781 C 162.914062 189.542969 169.292969 193.605469 176.5625 196.074219 C 182.351562 198.074219 188.742188 199.074219 195.679688 199.074219 C 208.96875 199.074219 220.148438 195.394531 229.230469 188.144531 C 238.089844 195.414062 249.070312 199.0625 262.167969 199.0625 C 275.046875 199.0625 285.867188 195.511719 294.667969 188.492188 C 303.4375 195.511719 314.253906 199.074219 327.15625 199.074219 C 340.515625 199.074219 351.703125 195.273438 360.664062 187.683594 C 361.921875 186.652344 363.113281 185.542969 364.261719 184.375 C 373.792969 174.554688 378.5625 161.765625 378.5625 145.984375 L 378.5625 91.378906 C 375.984375 91.378906 373.414062 91.898438 371.042969 92.917969 " clip-rule="nonzero"/></clipPath><clipPath id="997f702f2e"><path d="M 0.921875 0.320312 L 335.71875 0.320312 L 335.71875 159.199219 L 0.921875 159.199219 Z M 0.921875 0.320312 " clip-rule="nonzero"/></clipPath><clipPath id="2d9577fc00"><path d="M 328.03125 52.917969 C 321.933594 55.539062 316.445312 59.40625 311.554688 64.539062 C 302.472656 74.039062 297.496094 85.625 296.585938 99.335938 C 296.554688 99.847656 296.535156 100.355469 296.535156 100.867188 L 296.535156 106.386719 C 296.535156 106.695312 296.535156 107.015625 296.503906 107.324219 C 296.394531 112.09375 295.273438 115.855469 293.226562 118.625 C 290.996094 121.566406 287.976562 123.023438 284.144531 123.023438 C 280.296875 123.023438 277.265625 121.566406 275.09375 118.625 C 272.925781 115.683594 271.84375 111.605469 271.84375 106.386719 L 271.84375 70.269531 C 271.84375 59.839844 263.386719 51.378906 252.957031 51.378906 L 251.6875 51.378906 C 251.546875 51.378906 251.417969 51.398438 251.285156 51.398438 C 251.214844 51.398438 251.136719 51.386719 251.066406 51.386719 C 240.285156 51.386719 231.546875 60.128906 231.546875 70.90625 L 231.546875 106.375 C 231.546875 111.59375 230.449219 115.675781 228.238281 118.617188 C 226.027344 121.554688 222.996094 123.035156 219.15625 123.035156 C 215.316406 123.035156 212.296875 121.566406 210.128906 118.617188 C 207.957031 115.664062 206.867188 111.585938 206.867188 106.375 L 206.867188 70.90625 C 206.867188 67.558594 206.019531 64.40625 204.539062 61.648438 C 201.808594 53.777344 194.347656 48.117188 185.550781 48.117188 C 174.441406 48.117188 165.429688 57.128906 165.429688 68.226562 L 165.429688 104.777344 C 165.429688 110.15625 164.3125 114.367188 162.019531 117.394531 C 159.761719 120.425781 156.640625 121.925781 152.671875 121.925781 C 148.703125 121.925781 145.613281 120.425781 143.382812 117.394531 C 141.292969 114.574219 140.171875 110.695312 140.0625 105.777344 L 140.0625 27.917969 C 140.0625 16.808594 131.050781 7.800781 119.941406 7.800781 C 108.832031 7.800781 99.824219 16.808594 99.824219 27.917969 L 99.824219 47.378906 L 72.15625 47.378906 L 72.15625 43.347656 C 72.15625 39.898438 73.203125 37.160156 75.304688 35.128906 C 77.40625 33.097656 80.214844 32.078125 83.734375 32.078125 L 83.804688 32.078125 C 87.425781 32.058594 90.355469 29.121094 90.355469 25.5 L 90.355469 7.789062 C 90.355469 4.160156 87.5625 1.160156 83.945312 0.820312 C 80.273438 0.472656 76.695312 0.75 73.183594 0.75 C 61.054688 0.75 51.144531 4.589844 43.464844 12.28125 C 35.785156 19.96875 31.9375 29.871094 31.9375 42.007812 L 31.9375 47.390625 L 16.765625 47.390625 C 8.058594 47.378906 0.996094 54.4375 0.996094 63.148438 C 0.996094 71.859375 8.058594 78.917969 16.765625 78.917969 L 31.9375 78.917969 L 31.9375 135.203125 C 31.9375 146.3125 40.9375 155.3125 52.046875 155.3125 C 63.15625 155.3125 72.15625 146.3125 72.15625 135.203125 L 72.15625 78.90625 L 99.792969 78.90625 L 99.792969 104.375 C 99.792969 104.875 99.792969 105.375 99.824219 105.875 C 100.113281 121.464844 104.972656 134.132812 114.472656 143.925781 C 119.914062 149.542969 126.292969 153.605469 133.5625 156.074219 C 139.351562 158.074219 145.742188 159.074219 152.679688 159.074219 C 165.96875 159.074219 177.148438 155.394531 186.230469 148.144531 C 195.089844 155.414062 206.070312 159.0625 219.167969 159.0625 C 232.046875 159.0625 242.867188 155.511719 251.667969 148.492188 C 260.4375 155.511719 271.253906 159.074219 284.15625 159.074219 C 297.515625 159.074219 308.703125 155.273438 317.664062 147.683594 C 318.921875 146.652344 320.113281 145.542969 321.261719 144.375 C 330.792969 134.554688 335.5625 121.765625 335.5625 105.984375 L 335.5625 51.378906 C 332.984375 51.378906 330.414062 51.898438 328.042969 52.917969 " clip-rule="nonzero"/></clipPath><clipPath id="8784a16635"><rect x="0" width="336" y="0" height="160"/></clipPath><clipPath id="76284923c3"><path d="M 275.554688 47 L 313.773438 47 L 313.773438 85 L 275.554688 85 Z M 275.554688 47 " clip-rule="nonzero"/></clipPath><clipPath id="aa3785824d"><path d="M 294.636719 84.789062 C 300.085938 84.789062 304.585938 83.019531 308.125 79.480469 C 311.664062 75.9375 313.445312 71.4375 313.445312 65.988281 C 313.445312 60.539062 311.644531 56.011719 308.046875 52.410156 C 304.445312 48.808594 299.976562 47.011719 294.648438 47.011719 C 289.195312 47.011719 284.667969 48.808594 281.066406 52.410156 C 277.46875 56.011719 275.65625 60.539062 275.65625 65.988281 C 275.65625 71.320312 277.457031 75.789062 281.066406 79.390625 C 284.675781 82.988281 289.195312 84.789062 294.648438 84.789062 " clip-rule="nonzero"/></clipPath><clipPath id="f1f23ca5ee"><path d="M 0.554688 0 L 38.679688 0 L 38.679688 37.960938 L 0.554688 37.960938 Z M 0.554688 0 " clip-rule="nonzero"/></clipPath><clipPath id="b887609b7f"><path d="M 19.636719 37.789062 C 25.085938 37.789062 29.585938 36.019531 33.125 32.480469 C 36.664062 28.9375 38.445312 24.4375 38.445312 18.988281 C 38.445312 13.539062 36.644531 9.011719 33.046875 5.410156 C 29.445312 1.808594 24.976562 0.0117188 19.648438 0.0117188 C 14.195312 0.0117188 9.667969 1.808594 6.066406 5.410156 C 2.46875 9.011719 0.65625 13.539062 0.65625 18.988281 C 0.65625 24.320312 2.457031 28.789062 6.066406 32.390625 C 9.675781 35.988281 14.195312 37.789062 19.648438 37.789062 " clip-rule="nonzero"/></clipPath><clipPath id="b93609effa"><rect x="0" width="39" y="0" height="38"/></clipPath><clipPath id="8853bb18b8"><path d="M 339 48 L 456 48 L 456 199.726562 L 339 199.726562 Z M 339 48 " clip-rule="nonzero"/></clipPath><clipPath id="45a0de9b27"><path d="M 339.445312 145.757812 C 340.175781 160.484375 345.765625 172.894531 356.171875 182.984375 C 357.792969 184.574219 359.492188 186.042969 361.234375 187.332031 C 371.492188 195.363281 383.824219 199.332031 398.203125 199.332031 C 414.871094 199.332031 428.609375 193.484375 439.398438 181.746094 C 450.191406 170.042969 455.570312 155.214844 455.570312 137.304688 L 455.570312 67.230469 C 455.570312 56.660156 447 48.101562 436.441406 48.101562 C 425.878906 48.101562 417.3125 56.671875 417.3125 67.230469 L 417.3125 92.859375 C 410.902344 87.886719 403.050781 85.417969 393.753906 85.417969 C 387.460938 85.417969 381.582031 86.296875 376.132812 88.117188 C 368.132812 90.707031 361.074219 95.238281 354.933594 101.679688 C 345.402344 111.648438 340.265625 123.847656 339.464844 138.316406 Z M 410.8125 156.226562 C 407.492188 159.816406 403.222656 161.605469 397.992188 161.605469 C 392.761719 161.605469 388.460938 159.816406 385.171875 156.226562 C 381.851562 152.636719 380.203125 148.015625 380.203125 142.375 C 380.203125 136.738281 381.851562 132.085938 385.171875 128.464844 C 388.460938 124.847656 392.761719 123.027344 397.992188 123.027344 C 403.222656 123.027344 407.492188 124.847656 410.8125 128.464844 C 414.101562 132.085938 415.75 136.726562 415.75 142.375 C 415.75 148.027344 414.101562 152.636719 410.8125 156.226562 " clip-rule="nonzero"/></clipPath><clipPath id="d78f4a0a12"><path d="M 0.359375 0 L 116.761719 0 L 116.761719 151.441406 L 0.359375 151.441406 Z M 0.359375 0 " clip-rule="nonzero"/></clipPath><clipPath id="3f2e322ef6"><path d="M 0.445312 97.757812 C 1.175781 112.484375 6.765625 124.894531 17.171875 134.984375 C 18.792969 136.574219 20.492188 138.042969 22.234375 139.332031 C 32.492188 147.363281 44.824219 151.332031 59.203125 151.332031 C 75.871094 151.332031 89.609375 145.484375 100.398438 133.746094 C 111.191406 122.042969 116.570312 107.214844 116.570312 89.304688 L 116.570312 19.230469 C 116.570312 8.660156 108 0.101562 97.441406 0.101562 C 86.878906 0.101562 78.3125 8.671875 78.3125 19.230469 L 78.3125 44.859375 C 71.902344 39.886719 64.050781 37.417969 54.753906 37.417969 C 48.460938 37.417969 42.582031 38.296875 37.132812 40.117188 C 29.132812 42.707031 22.074219 47.238281 15.933594 53.679688 C 6.402344 63.648438 1.265625 75.847656 0.464844 90.316406 Z M 71.8125 108.226562 C 68.492188 111.816406 64.222656 113.605469 58.992188 113.605469 C 53.761719 113.605469 49.460938 111.816406 46.171875 108.226562 C 42.851562 104.636719 41.203125 100.015625 41.203125 94.375 C 41.203125 88.738281 42.851562 84.085938 46.171875 80.464844 C 49.460938 76.847656 53.761719 75.027344 58.992188 75.027344 C 64.222656 75.027344 68.492188 76.847656 71.8125 80.464844 C 75.101562 84.085938 76.75 88.726562 76.75 94.375 C 76.75 100.027344 75.101562 104.636719 71.8125 108.226562 " clip-rule="nonzero"/></clipPath><clipPath id="0668f38afb"><rect x="0" width="117" y="0" height="152"/></clipPath><clipPath id="17bb8711e2"><path d="M 458.738281 168.097656 L 490 168.097656 L 490 199.726562 L 458.738281 199.726562 Z M 458.738281 168.097656 " clip-rule="nonzero"/></clipPath><clipPath id="cba5e6d37d"><path d="M 485.609375 194.964844 C 482.6875 197.882812 479 199.332031 474.507812 199.332031 C 470.019531 199.332031 466.296875 197.851562 463.339844 194.882812 C 460.378906 191.914062 458.890625 188.242188 458.890625 183.863281 C 458.890625 179.382812 460.367188 175.65625 463.339844 172.695312 C 466.308594 169.734375 470.027344 168.246094 474.507812 168.246094 C 478.886719 168.246094 482.566406 169.726562 485.527344 172.695312 C 488.488281 175.664062 489.976562 179.382812 489.976562 183.863281 C 489.976562 188.34375 488.519531 192.042969 485.609375 194.964844 " clip-rule="nonzero"/></clipPath><clipPath id="f00728d041"><path d="M 0.878906 0.238281 L 32 0.238281 L 32 31.441406 L 0.878906 31.441406 Z M 0.878906 0.238281 " clip-rule="nonzero"/></clipPath><clipPath id="9bc3cdbdcd"><path d="M 27.609375 26.964844 C 24.6875 29.882812 21 31.332031 16.507812 31.332031 C 12.019531 31.332031 8.296875 29.851562 5.339844 26.882812 C 2.378906 23.914062 0.890625 20.242188 0.890625 15.863281 C 0.890625 11.382812 2.367188 7.65625 5.339844 4.695312 C 8.308594 1.734375 12.027344 0.246094 16.507812 0.246094 C 20.886719 0.246094 24.566406 1.726562 27.527344 4.695312 C 30.488281 7.664062 31.976562 11.382812 31.976562 15.863281 C 31.976562 20.34375 30.519531 24.042969 27.609375 26.964844 " clip-rule="nonzero"/></clipPath><clipPath id="f98cfaff07"><rect x="0" width="32" y="0" height="32"/></clipPath><clipPath id="c97b2fa16c"><rect x="0" width="534" y="0" height="240"/></clipPath></defs><rect x="-53.4" width="640.8" fill="#ffffff" y="-23.999999" height="287.999994" fill-opacity="1"/><g transform="matrix(1, 0, 0, 1, 0, 0)"><g clip-path="url(#c97b2fa16c)"><g clip-path="url(#75cd303cf7)"><path fill="#ffffff" d="M 0 0 L 533.976562 0 L 533.976562 239.988281 L 0 239.988281 Z M 0 0 " fill-opacity="1" fill-rule="nonzero"/></g><g clip-path="url(#c073d4e49e)"><g clip-path="url(#56864b768d)"><g transform="matrix(1, 0, 0, 1, 43, 40)"><g clip-path="url(#8784a16635)"><g clip-path="url(#997f702f2e)"><g clip-path="url(#2d9577fc00)"><rect x="-237.376" width="922.752" fill="#000000" y="-127.359998" height="414.719991" fill-opacity="1"/></g></g></g></g></g></g><g clip-path="url(#76284923c3)"><g clip-path="url(#aa3785824d)"><g transform="matrix(1, 0, 0, 1, 275, 47)"><g clip-path="url(#b93609effa)"><g clip-path="url(#f1f23ca5ee)"><g clip-path="url(#b887609b7f)"><rect x="-469.376" width="922.752" fill="#173a6d" y="-134.359998" height="414.719991" fill-opacity="1"/></g></g></g></g></g></g><g clip-path="url(#8853bb18b8)"><g clip-path="url(#45a0de9b27)"><g transform="matrix(1, 0, 0, 1, 339, 48)"><g clip-path="url(#0668f38afb)"><g clip-path="url(#d78f4a0a12)"><g clip-path="url(#3f2e322ef6)"><rect x="-533.376" width="922.752" fill="#173a6d" y="-135.359998" height="414.719991" fill-opacity="1"/></g></g></g></g></g></g><g clip-path="url(#17bb8711e2)"><g clip-path="url(#cba5e6d37d)"><g transform="matrix(1, 0, 0, 1, 458, 168)"><g clip-path="url(#f98cfaff07)"><g clip-path="url(#f00728d041)"><g clip-path="url(#9bc3cdbdcd)"><rect x="-652.376" width="922.752" fill="#173a6d" y="-255.359998" height="414.719991" fill-opacity="1"/></g></g></g></g></g></g></g></g></svg>